<svg version="1" xmlns="http://www.w3.org/2000/svg" width="1333.333" height="1333.333" viewBox="0 0 1000.000000 1000.000000"><path d="M714.8 12.5c-.1.1-3 .5-6.3.9-3.3.3-11.3 1.7-17.7 3.1-34.4 7.1-67.8 25.1-93.5 50.4-10.9 10.6-16.8 18.7-18.3 25.2-5.1 21 13.2 40.5 34.4 36.6 7.6-1.3 11.4-3.8 20.3-13 14.8-15.4 24.8-22.7 41.8-30.7 19.6-9.2 34.2-12.5 56-12.4 20.9.1 36.1 3.6 55 12.5 28.7 13.5 52.8 38.9 64.5 68.2 7.3 18.3 9.5 30 9.4 50.7-.1 19.5-3.7 35.4-12.5 54.6-3.6 7.8-13.4 22.5-19.2 28.9l-4.6 5-.1-17.3c0-17 0-17.3 2.7-21.5 4.5-7.2 8.9-17.7 11.8-28.7 2.5-9.3 2.9-12.3 2.9-26 .1-8.5-.2-16.9-.5-18.5-2.6-12.2-4.2-18.6-5-19.1-.5-.3-.9-1.3-.9-2.2 0-3-8.9-19.4-14.8-27.2-29.7-39.6-82.5-55-127.5-37.1-26.4 10.5-37.7 22.7-36.3 39 .6 7.8 4.3 15.8 9.2 20l3.5 3.1H644v7H437.5c-225.1 0-213-.3-227.5 5.6-8.9 3.6-19 10.5-25.4 17.5-9.4 10.1-16.8 25.6-18.4 38.4-.3 2.7-.6 159.1-.6 347.5.1 318 .2 343 1.8 349.4 2 8.2 6.4 17.9 13.8 29.8 11.4 18.5 25.6 29.3 44.9 34.2l9.4 2.4 247.5-.2c136.1-.1 248.4-.5 249.5-.8 1.1-.3 4.3-1.2 7-1.9 11.3-2.7 24.7-11 33.6-20.7 6.5-7.1 14.5-22 17-31.7 1-3.9 1.3-28.8 1.5-115.5.1-60.8.3-111.1.3-111.8.1-.7 39.5-40.7 87.8-89 48.2-48.2 89.3-89.8 91.4-92.4 4.2-5.3 9.9-17 11.7-23.8 4.3-16.2 2.7-36.2-4-49.4-12.3-24.3-22.5-36.1-38.3-44.2-20.5-10.5-45.7-10.6-65.5-.1-9.7 5.1-14.9 9.7-49.3 44.1-18.5 18.5-33.7 33.3-33.8 32.9 0-.5-.1-40.5-.2-89.1l-.2-88.2h9.8c5.3 0 9.7.2 9.7.4s-.7 2-1.6 4.1c-1.9 4.7-2 15.2-.1 19.7 5.4 13 15.7 20.1 28.9 20 10.2 0 15.8-3.3 28.9-16.9 27.6-28.5 43.4-59.5 51.3-100.9 2.1-11.1 2.9-40.9 1.3-52.9-1.9-15-7.8-38.4-11.7-47.1-1.1-2.3-2-4.6-2-4.9 0-.3-2.5-5.6-5.6-11.7-25.3-50.5-71.9-87.3-126.4-99.7-15.2-3.4-23.2-4.4-41.2-4.7-9.7-.1-17.8-.1-18 .1zm26.7 136.1c5.1.7 13.7 4 17.7 6.8 2.1 1.5-.3 1.6-26.7 1.6-27.9 0-28.9-.1-26.7-1.8 3.6-2.8 13.6-6.4 19.9-7.2 5.9-.7 6.9-.7 15.8.6zM589.6 223h5.1v56.3c0 63-.7 56.6 7.3 70.2 1.6 2.7 3.4 5.9 4 7 1.6 2.9 8 7.1 12.5 8.3 2.5.6 25.6 1 60.5 1 31.1 0 57 .1 57.6.1.8.1 1.1 23.5 1.1 86.8l.1 86.8-34.2 34.1c-18.7 18.8-43.1 43.3-54.2 54.5l-20.1 20.4-18.1 54.7c-12.4 37.3-18.2 56-18.2 59 0 4.1 1 6.4 7.3 18.4 6 11.3 12.7 15.8 23.2 15.7 4.9-.1 12.4-2.3 42-12.3 19.8-6.7 36.7-12.4 37.5-12.6.8-.2 4.9-1.5 9-2.9 4.1-1.5 8-2.7 8.5-2.9 1.6-.3 10.7-3.6 14.1-5.1l3.1-1.3-.1 76.6-.1 76.7-2.2 4.1c-3.3 6.1-9.6 11.1-15.7 12.4-3.6.8-74.2 1-247.6.8-223-.3-242.7-.4-245.5-1.9-1.7-1-3.9-2.7-5-3.9-1.9-2.1-1.9-6.1-2-341.2 0-266.8.3-339.9 1.2-343.3 1.8-6 7.7-12.1 14.3-14.8l5.5-2.2 172 .2c94.6.1 174.3.2 177.1.3zm331.5 236.1c2.1.7 5.3 2.4 7 3.9 2.9 2.4 3.2 3.2 3.2 7.7-.1 8.6-2.9 12.9-17.7 27.7L900 512l-12.5-12.3-12.5-12.4 11.2-11.3c6.2-6.2 12.7-12.3 14.3-13.5 5.8-4.4 13.2-5.6 20.6-3.4zm-70 76.4c6.3 6.4 11.5 12 11.7 12.5.2.5-24.7 26-55.2 56.6L752 660.3l-2.1-1.9c-6.2-5.5-22.8-22.8-22.4-23.3 2.1-2.9 110.3-110.9 111.1-111 .6 0 6.2 5.1 12.5 11.4zM702.8 684c6.7 6.6 12.2 12.3 12.2 12.8 0 .4-2.2 2.9-5 5.5-4.6 4.4-6.2 5.2-24.2 11.2-10.6 3.5-19.3 6.3-19.5 6.1-.1-.1 2.3-7.9 5.4-17.2l5.6-16.9 6.6-6.8c3.6-3.7 6.6-6.7 6.6-6.7.1 0 5.6 5.4 12.3 12z"/><path d="M274.1 405.1c-13.4 6.8-16.8 21.5-8.2 35.7 2.2 3.7 4.5 7.8 5.1 9.2 1.5 3.2 8.4 8.4 13.4 10 5.6 1.8 341.7 1.8 347.3 0 10.2-3.4 16.9-12.5 16.7-23 0-5.3-2.3-12-5.1-14.8-.7-.7-2.1-3.2-3.1-5.5-2.3-5.1-6.5-9.7-11.2-12.2-3.4-1.9-8.8-1.9-176.4-2.1l-172.9-.1-5.6 2.8zM282 498.1c-17.7 2.1-26.2 20.9-16.8 36.8 1.9 3.1 4.2 7.3 5.3 9.4 2.4 4.9 8.6 9.8 14 11.1 2.9.8 43 1.1 127.6 1.1l123.4-.1 4.4-2.3c8.5-4.4 13.2-12.2 13.2-21.6 0-5.3-2.7-13.5-5-14.9-.6-.4-1.9-2.6-2.9-4.9-2.7-6-7.9-11.1-13.4-13.2-4.5-1.7-12.5-1.8-125-1.9-66.2 0-122.3.2-124.8.5zM276.9 594.4c-15.1 5.4-20.4 22.7-11.2 36.7 1.3 2 3.3 5.5 4.6 8 2.6 5.1 9.1 10.4 14.7 11.9 2.6.7 43.9.9 127.2.8 118.7-.3 123.4-.4 127.3-2.2 9.9-4.7 15.5-16.5 13.1-27.5-.3-1.4-2.1-5-4-8-1.8-3.1-3.6-6.5-4-7.6-1-2.9-4.7-6.9-9.6-10.1l-4.4-2.9-125-.2c-101.1-.2-125.8 0-128.7 1.1zM278.4 689.6c-15.6 3.9-21.9 21.3-13.2 36.2 1.9 3.1 4 7 4.8 8.5 2.2 4.5 6.8 8.7 11.8 10.9 4.4 2 6.5 2 127.3 2 67.5 0 124.2-.3 126.1-.7 10.2-2.2 17.9-12 17.9-22.9 0-5.4-2.7-13.6-5-15-.6-.4-2.1-2.9-3.2-5.7-2.4-5.4-7-10-12.7-12.6-3.4-1.5-14.6-1.6-126.6-1.7-85.4-.1-124.2.2-127.2 1zM472.6 834.7c-.1.1-1.3.4-2.8.7-3.8.7-10.3 5.1-13.4 9.1-5.9 7.8-6.1 19.3-.4 27.3 1.6 2.3 3 4.7 3 5.2 0 2 5 8.9 8.2 11.4 6.7 5 4.4 4.9 85.3 5.1 85.2.1 81.3.4 89-7.1 8.3-8.2 9.6-21.1 3-30-1.3-1.6-3-4.6-3.8-6.5-2.2-5.3-7.1-10.4-12.4-12.9l-4.8-2.2-75.3-.2c-41.5 0-75.5 0-75.6.1z"/></svg>